<svg width="32" height="32" viewBox="0 0 32 32" fill="none" xmlns="http://www.w3.org/2000/svg">
<g id="ri:instagram-fill">
<path id="Vector" d="M17.3304 2.58789C18.7863 2.59177 19.5252 2.59954 20.1632 2.61766L20.4143 2.62671C20.7041 2.63707 20.9901 2.65001 21.3357 2.66554C22.7126 2.73024 23.6521 2.94766 24.4765 3.2673C25.3306 3.59601 26.0501 4.04118 26.7697 4.75942C27.4277 5.40634 27.9369 6.18889 28.2618 7.0526C28.5814 7.87695 28.7989 8.81648 28.8636 10.1947C28.8791 10.5389 28.892 10.825 28.9024 11.1161L28.9101 11.3672C28.9296 12.0039 28.9373 12.7428 28.9399 14.1987L28.9412 15.1641V16.8594C28.9444 17.8034 28.9345 18.7473 28.9114 19.691L28.9037 19.942C28.8933 20.2332 28.8804 20.5192 28.8649 20.8634C28.8001 22.2417 28.5801 23.1799 28.2618 24.0055C27.9378 24.8697 27.4285 25.6525 26.7697 26.2987C26.1226 26.9565 25.3401 27.4657 24.4765 27.7908C23.6521 28.1105 22.7126 28.3279 21.3357 28.3926C21.0286 28.4071 20.7215 28.42 20.4143 28.4314L20.1632 28.4392C19.5252 28.4573 18.7863 28.4664 17.3304 28.469L16.365 28.4702H14.671C13.7266 28.4735 12.7822 28.4636 11.8381 28.4405L11.5871 28.4327C11.2799 28.4211 10.9727 28.4077 10.6657 28.3926C9.28873 28.3279 8.34921 28.1105 7.52356 27.7908C6.65995 27.4665 5.87772 26.9572 5.23168 26.2987C4.57303 25.652 4.06338 24.8694 3.73826 24.0055C3.41862 23.1812 3.20121 22.2417 3.1365 20.8634C3.12208 20.5563 3.10914 20.2492 3.09768 19.942L3.09121 19.691C3.06736 18.7473 3.05657 17.8034 3.05885 16.8594V14.1987C3.05524 13.2548 3.06473 12.3109 3.08732 11.3672L3.09638 11.1161C3.10673 10.825 3.11968 10.5389 3.13521 10.1947C3.19991 8.81648 3.41732 7.87824 3.73697 7.0526C4.06194 6.188 4.57261 5.40522 5.23297 4.75942C5.87885 4.10133 6.66057 3.59211 7.52356 3.2673C8.34921 2.94766 9.28744 2.73024 10.6657 2.66554C11.0099 2.65001 11.2972 2.63707 11.5871 2.62671L11.8381 2.61895C12.7818 2.59596 13.7257 2.58603 14.6697 2.58918L17.3304 2.58789ZM16 9.05848C14.2839 9.05848 12.6381 9.7402 11.4246 10.9537C10.2112 12.1671 9.52944 13.813 9.52944 15.5291C9.52944 17.2452 10.2112 18.891 11.4246 20.1045C12.6381 21.3179 14.2839 21.9997 16 21.9997C17.7161 21.9997 19.362 21.3179 20.5754 20.1045C21.7889 18.891 22.4706 17.2452 22.4706 15.5291C22.4706 13.813 21.7889 12.1671 20.5754 10.9537C19.362 9.7402 17.7161 9.05848 16 9.05848ZM16 11.6467C16.5099 11.6466 17.0147 11.747 17.4858 11.942C17.9569 12.137 18.3849 12.4229 18.7455 12.7834C19.106 13.1438 19.3921 13.5718 19.5873 14.0428C19.7824 14.5138 19.8829 15.0186 19.883 15.5284C19.8831 16.0383 19.7828 16.5431 19.5878 17.0142C19.3927 17.4852 19.1068 17.9133 18.7464 18.2738C18.3859 18.6344 17.958 18.9205 17.487 19.1156C17.016 19.3108 16.5112 19.4113 16.0013 19.4114C14.9717 19.4114 13.9842 19.0024 13.2561 18.2743C12.528 17.5462 12.119 16.5587 12.119 15.5291C12.119 14.4994 12.528 13.5119 13.2561 12.7838C13.9842 12.0557 14.9717 11.6467 16.0013 11.6467M22.7954 7.1173C22.3664 7.1173 21.955 7.28773 21.6516 7.5911C21.3482 7.89447 21.1778 8.30592 21.1778 8.73495C21.1778 9.16398 21.3482 9.57543 21.6516 9.8788C21.955 10.1822 22.3664 10.3526 22.7954 10.3526C23.2245 10.3526 23.6359 10.1822 23.9393 9.8788C24.2427 9.57543 24.4131 9.16398 24.4131 8.73495C24.4131 8.30592 24.2427 7.89447 23.9393 7.5911C23.6359 7.28773 23.2245 7.1173 22.7954 7.1173Z" fill="#3A3A3A"/>
</g>
</svg>
