<svg width="32" height="32" viewBox="0 0 32 32" fill="none" xmlns="http://www.w3.org/2000/svg">
<g id="mdi:youtube">
<path id="Vector" d="M13.8822 19.4119L20.5987 15.5295L13.8822 11.6472V19.4119ZM28.8422 9.27894C29.0105 9.88717 29.1269 10.7025 29.2046 11.7378C29.2952 12.7731 29.334 13.666 29.334 14.4425L29.4117 15.5295C29.4117 18.3636 29.2046 20.4472 28.8422 21.7801C28.5187 22.9448 27.7681 23.6954 26.6034 24.0189C25.9952 24.1872 24.8822 24.3036 23.174 24.3813C21.4917 24.4719 19.9517 24.5107 18.5281 24.5107L16.4705 24.5884C11.0481 24.5884 7.67047 24.3813 6.33753 24.0189C5.17283 23.6954 4.42224 22.9448 4.09871 21.7801C3.93047 21.1719 3.814 20.3566 3.73636 19.3213C3.64577 18.286 3.60694 17.3931 3.60694 16.6166L3.5293 15.5295C3.5293 12.6954 3.73636 10.6119 4.09871 9.27894C4.42224 8.11423 5.17283 7.36364 6.33753 7.04011C6.94577 6.87188 8.05871 6.75541 9.76694 6.67776C11.4493 6.58717 12.9893 6.54835 14.4128 6.54835L16.4705 6.4707C21.8928 6.4707 25.2705 6.67776 26.6034 7.04011C27.7681 7.36364 28.5187 8.11423 28.8422 9.27894Z" fill="#3A3A3A"/>
</g>
</svg>
